<svg xmlns="http://www.w3.org/2000/svg" width="80" height="52" viewBox="0 0 154 55.476">
  <g id="Group_4" data-name="Group 4" transform="translate(97.023 487.25)">
    <g id="Group_1" data-name="Group 1" transform="translate(-97.023 -487.25)">
      <path id="Path_1" data-name="Path 1" d="M302.17,250.1a8.731,8.731,0,1,0,0-17.463Z" transform="translate(-255.672 -218.797)" fill="#f4dd4b"/>
      <path id="Path_2" data-name="Path 2" d="M109.83,200.967a6.99,6.99,0,0,0,.691-3.03V183.709l-6.46,13.912h-.1l-6.452-14.132a6.989,6.989,0,0,0-6.358-4.087H87.186v31.1h0a24.441,24.441,0,1,1,34.976-34.148h1.151a11.74,11.74,0,0,1,3.63.575,27.74,27.74,0,1,0-32.768,42.1v-3.594h0V193.847l7.343,15.176a2.464,2.464,0,0,0,4.438-.005Z" transform="translate(-76.816 -165.565)" fill="#f4dd4b"/>
      <path id="Path_3" data-name="Path 3" d="M254.46,232.633v27.8h6.99v-20.81a6.99,6.99,0,0,0-6.989-6.989Z" transform="translate(-217.807 -218.795)" fill="#f4dd4b"/>
      <path id="Path_4" data-name="Path 4" d="M207.721,315.428a24.455,24.455,0,0,1-30.94,17.921v3.427a27.749,27.749,0,0,0,34.729-24.224A11.846,11.846,0,0,1,207.721,315.428Z" transform="translate(-156.155 -282.223)" fill="#f4dd4b"/>
    </g>
    <g id="Group_2" data-name="Group 2" transform="translate(-27.723 -478.694)" opacity="0.8">
      <path id="Path_5" data-name="Path 5" d="M412.682,209.14h1.56v6.35h1.8v-7.8h-3.364Z" transform="translate(-412.682 -207.556)" fill="#fff"/>
      <path id="Path_6" data-name="Path 6" d="M446.038,207.518a3.346,3.346,0,0,0-3.431,0,3.275,3.275,0,0,0-1.192,1.37,5.666,5.666,0,0,0,0,4.378,3.275,3.275,0,0,0,1.192,1.37,3.346,3.346,0,0,0,3.431,0,3.275,3.275,0,0,0,1.192-1.37,5.662,5.662,0,0,0,0-4.378A3.275,3.275,0,0,0,446.038,207.518Zm-.39,5a1.716,1.716,0,0,1-.535.819,1.317,1.317,0,0,1-1.576,0,1.727,1.727,0,0,1-.546-.819,5.254,5.254,0,0,1,0-2.874,1.729,1.729,0,0,1,.546-.819,1.317,1.317,0,0,1,1.576,0,1.718,1.718,0,0,1,.535.818A5.4,5.4,0,0,1,445.648,212.515Z" transform="translate(-435.137 -207.042)" fill="#fff"/>
      <path id="Path_7" data-name="Path 7" d="M488.1,207.518a3.347,3.347,0,0,0-3.432,0,3.278,3.278,0,0,0-1.192,1.37,5.666,5.666,0,0,0,0,4.378,3.278,3.278,0,0,0,1.192,1.37,3.346,3.346,0,0,0,3.432,0,3.276,3.276,0,0,0,1.192-1.37,5.664,5.664,0,0,0,0-4.378A3.276,3.276,0,0,0,488.1,207.518Zm-.39,5a1.717,1.717,0,0,1-.535.819,1.317,1.317,0,0,1-1.576,0,1.724,1.724,0,0,1-.546-.819,5.249,5.249,0,0,1,0-2.874,1.726,1.726,0,0,1,.546-.819,1.317,1.317,0,0,1,1.576,0,1.718,1.718,0,0,1,.535.819A5.4,5.4,0,0,1,487.707,212.515Z" transform="translate(-468.518 -207.042)" fill="#fff"/>
      <path id="Path_8" data-name="Path 8" d="M553.929,208.173a4.942,4.942,0,0,0-2.239-.485h-3.543v7.8h3.543a4.942,4.942,0,0,0,2.239-.484,3.685,3.685,0,0,0,1.515-1.359,4.144,4.144,0,0,0,0-4.111,3.687,3.687,0,0,0-1.515-1.359Zm-.083,4.7a2.131,2.131,0,0,1-.891.846,2.924,2.924,0,0,1-1.354.3h-1.638v-4.856H551.6a2.926,2.926,0,0,1,1.354.3,2.146,2.146,0,0,1,.891.841A2.778,2.778,0,0,1,553.846,212.874Z" transform="translate(-520.196 -207.552)" fill="#fff"/>
      <path id="Path_9" data-name="Path 9" d="M596.1,207.692l-3.465,7.8h1.85l.695-1.671h3.612l.695,1.671h1.894l-3.5-7.8Zm-.351,4.757,1.236-2.973,1.236,2.973Z" transform="translate(-555.506 -207.556)" fill="#fff"/>
      <path id="Path_10" data-name="Path 10" d="M642.843,207.692l-2.087,3.453-2.079-3.453h-1.927l3.03,5.021v2.777H641.6v-2.782l3.008-5.017Z" transform="translate(-590.517 -207.556)" fill="#fff"/>
      <path id="Path_11" data-name="Path 11" d="M685.744,211.029a4.324,4.324,0,0,0-.88-.4,9.812,9.812,0,0,0-.97-.262q-.49-.106-.891-.212a1.8,1.8,0,0,1-.646-.3.6.6,0,0,1-.245-.5.725.725,0,0,1,.15-.445.993.993,0,0,1,.473-.318,2.585,2.585,0,0,1,.858-.117,4.091,4.091,0,0,1,1.069.15,4.545,4.545,0,0,1,1.081.451l.568-1.359a4.3,4.3,0,0,0-1.253-.512,6.016,6.016,0,0,0-1.454-.178,4.475,4.475,0,0,0-1.833.328,2.442,2.442,0,0,0-1.085.88,2.2,2.2,0,0,0-.356,1.22,1.984,1.984,0,0,0,.239,1.019,1.887,1.887,0,0,0,.646.657,3.892,3.892,0,0,0,.891.4q.485.15.964.256t.886.223a2.01,2.01,0,0,1,.652.3.588.588,0,0,1,.245.5.643.643,0,0,1-.156.429,1.073,1.073,0,0,1-.485.3,2.755,2.755,0,0,1-.863.111,4.408,4.408,0,0,1-1.393-.228,4.27,4.27,0,0,1-1.181-.585l-.613,1.359a4.185,4.185,0,0,0,1.387.652,6.411,6.411,0,0,0,1.8.251,4.448,4.448,0,0,0,1.838-.334,2.523,2.523,0,0,0,1.1-.88,2.13,2.13,0,0,0,.362-1.2,1.815,1.815,0,0,0-.9-1.654Z" transform="translate(-624.974 -207.033)" fill="#fff"/>
      <path id="Path_12" data-name="Path 12" d="M748.6,208.18a4.072,4.072,0,0,0-1.354-.841,4.733,4.733,0,0,0-1.7-.3,4.656,4.656,0,0,0-1.7.3,4.133,4.133,0,0,0-1.353.846,3.842,3.842,0,0,0-.9,1.276,4.226,4.226,0,0,0,0,3.214,3.824,3.824,0,0,0,.9,1.281,4.118,4.118,0,0,0,1.359.846,4.978,4.978,0,0,0,3.392.006,4.064,4.064,0,0,0,1.354-.841,3.814,3.814,0,0,0,.9-1.287,4.254,4.254,0,0,0,0-3.225A3.825,3.825,0,0,0,748.6,208.18Zm-.8,3.9a2.417,2.417,0,0,1-.518.791,2.338,2.338,0,0,1-.774.523,2.478,2.478,0,0,1-.964.184,2.518,2.518,0,0,1-.97-.184,2.266,2.266,0,0,1-.774-.523,2.461,2.461,0,0,1-.512-.791,2.857,2.857,0,0,1,0-2.016,2.461,2.461,0,0,1,.512-.791,2.269,2.269,0,0,1,.774-.524,2.518,2.518,0,0,1,.97-.184,2.477,2.477,0,0,1,.964.184,2.34,2.34,0,0,1,.774.524,2.416,2.416,0,0,1,.518.791A2.859,2.859,0,0,1,747.8,212.085Z" transform="translate(-673.478 -207.041)" fill="#fff"/>
      <path id="Path_13" data-name="Path 13" d="M800.516,209.14v-1.448h-5.893v7.8h1.816v-2.841h3.6V211.2h-3.6V209.14Z" transform="translate(-715.817 -207.556)" fill="#fff"/>
      <path id="Path_14" data-name="Path 14" d="M427.027,285.838,417.534,270.1h-4.852V295.45h5.468V280.5l7.46,12.236h2.607l7.467-12.4.065,15.119h5.468V270.1h-4.888Z" transform="translate(-412.682 -257.089)" fill="#fff"/>
      <path id="Path_15" data-name="Path 15" d="M579.991,288.206l-7.709-18.1h-6.373l10.972,25.348h5.794L593.647,270.1h-5.83Z" transform="translate(-534.294 -257.089)" fill="#fff"/>
      <path id="Path_16" data-name="Path 16" d="M737.294,274.375a8.594,8.594,0,0,0-3.8-3.169,14.257,14.257,0,0,0-5.866-1.1H716.653V295.45h5.9v-6.989h5.07a14.057,14.057,0,0,0,5.866-1.123,9.113,9.113,0,0,0,3.8-12.964Zm-5.939,8.148a6.152,6.152,0,0,1-4.056,1.159h-4.744v-8.8H727.3a6.225,6.225,0,0,1,4.056,1.141,3.972,3.972,0,0,1,1.376,3.241A4.026,4.026,0,0,1,731.355,282.523Z" transform="translate(-653.935 -257.089)" fill="#fff"/>
    </g>
  </g>
</svg>
